<svg width="23" height="22" viewBox="0 0 23 22" fill="none" xmlns="http://www.w3.org/2000/svg">
    <path d="M4.55111 20.877L5.36169 20.4717H5.36169L4.55111 20.877ZM19.1991 20.877L20.0097 21.2823L20.0097 21.2823L19.1991 20.877ZM2.01973 8.88123H21.7305V7.06873H2.01973V8.88123ZM21.1188 8.26961V8.90581H22.9313V8.26961H21.1188ZM18.9597 20.1187H4.79053V21.9312H18.9597V20.1187ZM2.63135 8.90581V8.26961H0.818848V8.90581H2.63135ZM5.36169 20.4717C3.56614 16.8806 2.63135 12.9208 2.63135 8.90581H0.818848C0.818848 13.2022 1.81915 17.4395 3.74054 21.2823L5.36169 20.4717ZM4.79053 20.1187C5.03241 20.1187 5.25352 20.2554 5.36169 20.4717L3.74054 21.2823C3.93939 21.68 4.34588 21.9312 4.79053 21.9312V20.1187ZM18.3885 20.4717C18.4967 20.2554 18.7178 20.1187 18.9597 20.1187V21.9312C19.4043 21.9312 19.8108 21.68 20.0097 21.2823L18.3885 20.4717ZM21.1188 8.90581C21.1188 12.9208 20.1841 16.8806 18.3885 20.4717L20.0097 21.2823C21.931 17.4395 22.9313 13.2022 22.9313 8.90581H21.1188ZM21.7305 8.88123C21.3927 8.88123 21.1188 8.60739 21.1188 8.26961H22.9313C22.9313 7.60638 22.3937 7.06873 21.7305 7.06873V8.88123ZM2.01973 7.06873C1.3565 7.06873 0.818848 7.60638 0.818848 8.26961H2.63135C2.63135 8.60739 2.35752 8.88123 2.01973 8.88123V7.06873ZM6.8522 8.44124L11.2022 1.19124L9.64799 0.258714L5.29799 7.50871L6.8522 8.44124ZM12.548 1.19124L16.898 8.44124L18.4522 7.50871L14.1022 0.258714L12.548 1.19124ZM10.9688 10.15V17.4H12.7813V10.15H10.9688ZM8.2501 14.6812H15.5001V12.8687H8.2501V14.6812Z" fill="white"/>
</svg>
